<svg xmlns="http://www.w3.org/2000/svg" width="91.781" height="102.762" viewBox="0 0 91.781 102.762"><defs><style>.a{fill:#fff;}.b{fill:#78b742;}</style></defs><g transform="translate(-349 -2265.935)"><path class="a" d="M-1782.974,535.556V494.577a10.4,10.4,0,0,0-5.2-9.008l-35.489-20.489a10.4,10.4,0,0,0-10.4,0l-35.489,20.489a10.4,10.4,0,0,0-5.2,9.008v40.979a10.4,10.4,0,0,0,5.2,9.008l35.489,20.489a10.4,10.4,0,0,0,10.4,0l35.489-20.489A10.4,10.4,0,0,0-1782.974,535.556Z" transform="translate(2223.755 1802.249)"/><g transform="translate(363.556 2304.195)"><path class="b" d="M-1002.536,1006.414a5.8,5.8,0,0,1,2.936.889,8.345,8.345,0,0,1,2.58,2.377l4.636-5.516a13.552,13.552,0,0,0-4.669-3.223,14.029,14.029,0,0,0-5.583-1.21,14.259,14.259,0,0,0-6.776,1.59,11.812,11.812,0,0,0-4.7,4.4,12.048,12.048,0,0,0-1.692,6.345,12.58,12.58,0,0,0,1.658,6.43,11.819,11.819,0,0,0,4.594,4.484,13.415,13.415,0,0,0,6.607,1.625,13.477,13.477,0,0,0,5.651-1.311,15.248,15.248,0,0,0,4.907-3.528l-4.636-4.958a9.142,9.142,0,0,1-2.69,2.03,6.406,6.406,0,0,1-2.826.745,4.757,4.757,0,0,1-2.58-.728,4.913,4.913,0,0,1-1.8-2.014,6.327,6.327,0,0,1-.643-2.876,5.7,5.7,0,0,1,1.421-3.984A4.655,4.655,0,0,1-1002.536,1006.414Z" transform="translate(1015.801 -998.363)"/><path class="b" d="M-962.789,1001.322a14.635,14.635,0,0,0-6.861-1.59,14.635,14.635,0,0,0-6.861,1.59,11.855,11.855,0,0,0-4.763,4.4,12.02,12.02,0,0,0-1.709,6.379,12.284,12.284,0,0,0,1.709,6.429A11.845,11.845,0,0,0-976.51,1023a14.5,14.5,0,0,0,6.861,1.608,14.376,14.376,0,0,0,6.861-1.625,12.058,12.058,0,0,0,4.771-4.466,12.155,12.155,0,0,0,1.718-6.412,12.005,12.005,0,0,0-1.718-6.362A11.873,11.873,0,0,0-962.789,1001.322Zm-2.427,13.756a5.279,5.279,0,0,1-1.8,2.081,4.458,4.458,0,0,1-2.529.762,4.708,4.708,0,0,1-2.581-.762,5.521,5.521,0,0,1-1.9-2.081,6.113,6.113,0,0,1-.71-2.944,6.015,6.015,0,0,1,.71-2.927,5.419,5.419,0,0,1,1.9-2.047,4.784,4.784,0,0,1,2.581-.745,4.528,4.528,0,0,1,2.529.745,5.176,5.176,0,0,1,1.8,2.047,6.39,6.39,0,0,1,.66,2.927A6.5,6.5,0,0,1-965.216,1015.078Z" transform="translate(1006.483 -998.363)"/><path class="b" d="M-938.174,1008.583l2.14-2.141a14.111,14.111,0,0,0,2.032-2.47,4.352,4.352,0,0,0,.72-2.313,3.184,3.184,0,0,0-.671-2,4.384,4.384,0,0,0-1.83-1.352,6.725,6.725,0,0,0-2.609-.483,11.1,11.1,0,0,0-6.3,2.22l1.736,3.373a10.555,10.555,0,0,1,2.047-1.331,4.192,4.192,0,0,1,1.79-.484q.928,0,.927.75a1.7,1.7,0,0,1-.291.824,5.912,5.912,0,0,1-.735.972l-4.913,5.11v2.93h11.049v-3.6Z" transform="translate(995.613 -997.821)"/></g></g></svg>