<svg xmlns="http://www.w3.org/2000/svg" width="92.668" height="103.754" viewBox="0 0 92.668 103.754"><defs><style>.a{fill:#fff;}.b{fill:#78b742;fill-rule:evenodd;}</style></defs><g transform="translate(-349 -2021.935)"><path class="a" d="M-1782.087,536.25V494.875a10.5,10.5,0,0,0-5.251-9.1l-35.832-20.687a10.5,10.5,0,0,0-10.5,0L-1869.5,485.78a10.5,10.5,0,0,0-5.252,9.1V536.25a10.5,10.5,0,0,0,5.252,9.1l35.832,20.687a10.5,10.5,0,0,0,10.5,0l35.832-20.687A10.5,10.5,0,0,0-1782.087,536.25Z" transform="translate(2223.755 1558.249)"/><g transform="translate(363.697 2067.795) rotate(-22)"><path class="b" d="M4.145,23.164C11.681-3.537,29.108-.454,54.194.785,45.813,20.78,35.885,37.4,7.325,29.618a23.1,23.1,0,0,0-2.917,4.264c-1.967,3.266-5.845.142-3.855-2.147C9.534,20.3,21.06,13.2,34.49,8.287c0,0-17.875,2.581-30.346,14.878Z" transform="translate(0 0)"/></g></g></svg>