<svg xmlns="http://www.w3.org/2000/svg" width="92.197" height="103.227" viewBox="0 0 92.197 103.227"><defs><style>.a{fill:#fff;}.b{fill:#78b742;}</style></defs><g transform="translate(-406.256 -1574.935)"><g transform="translate(406.256 1574.935)"><path class="a" d="M-1782.558,535.881V494.717a10.447,10.447,0,0,0-5.224-9.049l-35.65-20.582a10.447,10.447,0,0,0-10.448,0l-35.65,20.582a10.448,10.448,0,0,0-5.225,9.049v41.164a10.451,10.451,0,0,0,5.225,9.049l35.65,20.582a10.447,10.447,0,0,0,10.448,0l35.65-20.582A10.45,10.45,0,0,0-1782.558,535.881Z" transform="translate(1874.755 -463.686)"/><g transform="translate(14.621 38.331)"><path class="b" d="M-1008.311,896.583a1.533,1.533,0,0,1,1.533-1.534,1.533,1.533,0,0,1,1.533,1.534,1.534,1.534,0,0,1-1.533,1.533A1.536,1.536,0,0,1-1008.311,896.583Zm-2.3,0a3.835,3.835,0,0,0,3.834,3.834,3.835,3.835,0,0,0,3.834-3.834,3.834,3.834,0,0,0-3.834-3.834A3.838,3.838,0,0,0-1010.612,896.583Zm-6.9,0a1.533,1.533,0,0,1,1.534-1.534,1.533,1.533,0,0,1,1.533,1.534,1.534,1.534,0,0,1-1.533,1.533A1.534,1.534,0,0,1-1017.51,896.583Zm-2.3,0a3.835,3.835,0,0,0,3.834,3.834,3.835,3.835,0,0,0,3.834-3.834,3.834,3.834,0,0,0-3.834-3.834A3.834,3.834,0,0,0-1019.811,896.583Zm53.67-3.834h-19.166v2.3h19.166Zm3.834,3.834a1.532,1.532,0,0,1,1.533-1.534,1.533,1.533,0,0,1,1.533,1.534,1.534,1.534,0,0,1-1.533,1.533A1.533,1.533,0,0,1-962.307,896.583Zm-2.3,0a3.835,3.835,0,0,0,3.834,3.834,3.835,3.835,0,0,0,3.834-3.834,3.834,3.834,0,0,0-3.834-3.834A3.834,3.834,0,0,0-964.608,896.583Zm-53.851-28.368a1.352,1.352,0,0,0-1.352,1.352v21.648h53.67V869.567a1.351,1.351,0,0,0-1.352-1.352Zm55.2,11.5a1.355,1.355,0,0,0-1.352,1.355l0,10.145h3.834a5.367,5.367,0,0,1,5.139,3.834h1.262a1.31,1.31,0,0,0,1.262-1.352v-12.63a1.353,1.353,0,0,0-1.352-1.352Z" transform="translate(1019.811 -868.215)"/></g></g></g></svg>