<?xml version="1.0" encoding="UTF-8"?>
<svg id="Icons" xmlns="http://www.w3.org/2000/svg" viewBox="0 0 64 64">
  <defs>
    <style>
      .cls-1 {
        fill: none;
      }

      .cls-2 {
        fill: #2d2e2d;
      }
    </style>
  </defs>
  <rect class="cls-1" width="64" height="64"/>
  <g>
    <path class="cls-2" d="m43.15,22.43h8.64l5.2,9.3v9.54h-2.97v-.61c0-1.15-.47-2.19-1.22-2.94-.75-.75-1.79-1.22-2.94-1.22s-2.19.47-2.94,1.22c-.75.75-1.22,1.79-1.22,2.94v.61h-3.16v-18.83h.61Zm7.93,1.22h-7.32v16.39h.76c.14-1.24.7-2.36,1.54-3.19.97-.97,2.32-1.58,3.8-1.58s2.83.6,3.8,1.58c.84.84,1.4,1.95,1.54,3.19h.57v-8.01l-4.69-8.38h0Z"/>
    <polygon class="cls-2" points="56.39 32.49 45.42 32.49 45.42 22.43 51.44 22.43 51.44 23.65 46.64 23.65 46.64 31.27 56.39 31.27 56.39 32.49"/>
    <path class="cls-2" d="m43.15,41.26h-20.19v-.61c0-1.15-.47-2.19-1.22-2.94-.75-.75-1.79-1.22-2.94-1.22s-2.19.47-2.94,1.22c-.75.75-1.22,1.79-1.22,2.94v.61h-7.65c0-7.76,0-15.53,0-23.29h36.76v23.29h-.61,0Zm-19-1.22h18.39v-20.86H8.22v20.86h5.24c.14-1.24.7-2.36,1.54-3.19.97-.97,2.32-1.58,3.8-1.58s2.83.6,3.8,1.58c.84.84,1.4,1.95,1.54,3.19h0Z"/>
    <path class="cls-2" d="m43.15,37.73h-21.14v-1.22h21.14v1.22Zm-27.56,0h-7.99v-1.22h7.99v1.22Z"/>
    <polygon class="cls-2" points="14.23 21.46 14.23 34.24 13.01 34.24 13.01 21.46 14.23 21.46"/>
    <polygon class="cls-2" points="20.11 21.46 20.11 34.24 18.89 34.24 18.89 21.46 20.11 21.46"/>
    <polygon class="cls-2" points="25.99 21.46 25.99 34.24 24.77 34.24 24.77 21.46 25.99 21.46"/>
    <polygon class="cls-2" points="31.87 21.46 31.87 34.24 30.66 34.24 30.66 21.46 31.87 21.46"/>
    <polygon class="cls-2" points="37.76 21.46 37.76 34.24 36.54 34.24 36.54 21.46 37.76 21.46"/>
    <path class="cls-2" d="m18.81,35.27c1.49,0,2.83.6,3.8,1.58s1.58,2.32,1.58,3.8-.6,2.83-1.58,3.8c-.97.97-2.32,1.58-3.8,1.58s-2.83-.6-3.8-1.58c-.97-.98-1.58-2.32-1.58-3.8s.6-2.83,1.58-3.8c.97-.97,2.32-1.58,3.8-1.58Zm2.94,2.44c-.75-.75-1.79-1.22-2.94-1.22s-2.19.47-2.94,1.22c-.75.75-1.22,1.79-1.22,2.94s.47,2.19,1.22,2.94h0c.75.75,1.79,1.22,2.94,1.22s2.19-.47,2.94-1.22h0c.75-.75,1.22-1.79,1.22-2.94s-.47-2.19-1.22-2.94h0Z"/>
    <path class="cls-2" d="m49.87,35.27c1.49,0,2.83.6,3.8,1.58s1.58,2.32,1.58,3.8-.6,2.83-1.58,3.8c-.97.97-2.32,1.58-3.8,1.58s-2.83-.6-3.8-1.58c-.97-.98-1.58-2.32-1.58-3.8s.6-2.83,1.58-3.8c.97-.97,2.32-1.58,3.8-1.58Zm2.94,2.44c-.75-.75-1.79-1.22-2.94-1.22s-2.19.47-2.94,1.22c-.75.75-1.22,1.79-1.22,2.94s.47,2.19,1.22,2.94h0c.75.75,1.79,1.22,2.94,1.22s2.19-.47,2.94-1.22h0c.75-.75,1.22-1.79,1.22-2.94s-.47-2.19-1.22-2.94h0Z"/>
    <path class="cls-2" d="m18.81,38.6c.57,0,1.08.23,1.45.6s.6.89.6,1.45-.23,1.08-.6,1.45h0c-.37.37-.89.6-1.45.6s-1.08-.23-1.45-.6h0c-.37-.37-.6-.89-.6-1.45s.23-1.08.6-1.45h0c.37-.37.88-.6,1.45-.6Zm.59,1.46c-.15-.15-.36-.24-.59-.24s-.44.09-.59.24c-.15.15-.24.36-.24.59s.09.44.24.59c.15.15.36.24.59.24s.44-.09.59-.24c.15-.15.24-.36.24-.59s-.09-.44-.24-.59Z"/>
    <path class="cls-2" d="m49.87,38.6c.57,0,1.08.23,1.45.6.37.37.6.89.6,1.45s-.23,1.08-.6,1.45h0c-.37.37-.89.6-1.45.6s-1.08-.23-1.45-.6h0c-.37-.37-.6-.89-.6-1.45s.23-1.08.6-1.45h0c.37-.37.88-.6,1.45-.6Zm.59,1.46c-.15-.15-.36-.24-.59-.24s-.44.09-.59.24c-.15.15-.24.36-.24.59s.09.44.24.59c.15.15.36.24.59.24s.44-.09.59-.24c.15-.15.24-.36.24-.59s-.09-.44-.24-.59Z"/>
  </g>
</svg>